<svg width="41" height="40" viewBox="0 0 41 40" fill="none" xmlns="http://www.w3.org/2000/svg">
<path d="M26.1704 30L26.4554 35.86L20.5977 31.7417L14.707 35.865L14.9919 30.0017H12.5177L12.0911 38.7517H14.9244L20.5927 34.785L26.2347 38.7517H29.068L28.6413 30.0017H26.1671L26.1704 30Z" fill="#008080"/>
<path d="M32.89 12.1033L32.7203 8.3483L29.5921 6.3233L27.5907 3.1583L23.8793 2.98663L20.5815 1.2583L17.2836 2.98663L13.5723 3.1583L11.5708 6.3233L8.4426 8.3483L8.27293 12.1033L6.5647 15.44L8.27293 18.7766L8.4426 22.5316L11.5708 24.5566L13.5723 27.7216L17.2836 27.8933L20.5815 29.6216L23.8793 27.8933L27.5907 27.7216L29.5921 24.5566L32.7203 22.5316L32.89 18.7766L34.5982 15.44L32.89 12.1033ZM30.4471 18.115L30.312 21.1233L27.8048 22.7466L26.2004 25.2833L23.227 25.42L20.5831 26.805L17.9392 25.42L14.9659 25.2833L13.3614 22.7466L10.8542 21.1233L10.7192 18.115L9.35026 15.44L10.7192 12.765L10.8542 9.75663L13.3614 8.1333L14.9659 5.59663L17.9392 5.4583L20.5831 4.0733L23.227 5.4583L26.2004 5.59663L27.8048 8.1333L30.312 9.75663L30.4471 12.765L31.816 15.44L30.4471 18.115Z" fill="#008080"/>
</svg>
