<svg width="40" height="40" viewBox="0 0 40 40" fill="none" xmlns="http://www.w3.org/2000/svg">
<path d="M10.1116 29.6H34.2667V4H10.0448C8.97334 4.00337 7.9467 4.43041 7.18892 5.18792C6.43115 5.94543 6.00375 6.97192 6 8.04338V31.6167H6.00142L6 31.6466C6 34.006 7.85173 36 10.0448 36H34.2667V33.8667H10.0448C9.04498 33.8667 8.13333 32.8085 8.13333 31.6466C8.13333 30.5372 9.03929 29.6 10.1116 29.6ZM27.3333 6.15609V17.6775L24.1063 14.8444L20.9333 17.6604V6.15609H27.3333ZM18.8 6.13333V20.5333H20.9092L24.1148 17.6889L27.3547 20.5333H29.4681V6.13333H32.1348V27.4667H12.4071L12.4014 6.13333H18.8ZM10.0448 6.13333H10.2667L10.2724 27.4667H10.1116C9.38347 27.4667 8.70222 27.6615 8.11484 28.0028L8.13333 27.9929V8.06187V8.05618C8.13295 7.54844 8.3337 7.06121 8.69166 6.70112C9.04962 6.34103 9.53564 6.13739 10.0434 6.13476L10.0448 6.13333Z" fill="#008080"/>
</svg>
