<svg width="32" height="29" viewBox="0 0 32 29" fill="none" xmlns="http://www.w3.org/2000/svg">
<path d="M7.37797 11.3083H2.39486C1.60984 11.3083 0.952822 11.8573 0.789278 12.5925L0.787856 12.6039C0.287269 14.7399 0 17.1931 0 19.7131C0 22.071 0.251716 24.3705 0.728127 26.5848L0.68973 26.3715L0.789278 26.8507C0.868236 27.2226 1.07217 27.5563 1.36714 27.7961C1.66211 28.036 2.03032 28.1676 2.4105 28.169H7.38082C7.81961 28.1683 8.24022 27.9936 8.5505 27.6834C8.86077 27.3731 9.03542 26.9525 9.03617 26.5137V12.9637C9.03579 12.5248 8.86127 12.104 8.55091 11.7936C8.24055 11.4832 7.81973 11.3087 7.38082 11.3083H7.37797ZM6.90014 26.0373H2.79589L2.77598 25.9377C2.34135 23.892 2.12493 21.8059 2.13034 19.7145C2.13034 17.4932 2.36926 15.3273 2.82291 13.241L2.78594 13.4415H6.90014V26.0373Z" fill="#008080"/>
<path d="M31.8975 16.2831L30.4256 12.3566C30.3094 12.0498 30.1027 11.7855 29.8331 11.5986C29.5634 11.4117 29.2434 11.3111 28.9153 11.3099H21.0681V9.3417L21.7066 7.92811C22.0246 7.22379 22.2005 6.46368 22.2243 5.69128C22.2482 4.91888 22.1194 4.14936 21.8454 3.42679C21.5715 2.70421 21.1577 2.04277 20.6277 1.48034C20.0978 0.917907 19.4621 0.465524 18.7571 0.149094L18.7201 0.134872C18.3335 -0.0336037 17.8964 -0.0446584 17.5018 0.104058C17.1072 0.252775 16.7861 0.549536 16.6069 0.931261L16.6026 0.941216L11.2483 12.6609V14.3319H12.8297L18.3148 2.32494C19.0922 2.80509 19.6673 3.55269 19.9321 4.42716C20.1969 5.30163 20.133 6.24271 19.7526 7.07341L19.7625 7.05066L19.0301 8.6733L18.9363 9.11273V12.3779L20.0029 13.4445H28.5555L29.8681 16.9458V17.5644L25.3358 25.5297H17.0065L11.2483 22.1522V24.6253L16.048 27.4411C16.2812 27.5804 16.5642 27.6629 16.8643 27.6629H25.6373C26.2346 27.6629 26.7565 27.3372 27.0353 26.8551L27.0395 26.848L31.7894 18.5002C31.9217 18.2712 31.9999 17.9953 31.9999 17.7024V16.8519V16.8505C31.9999 16.6471 31.9615 16.4523 31.8933 16.2745L31.8975 16.2859V16.2831Z" fill="#008080"/>
</svg>
