<svg width="35" height="30" viewBox="0 0 35 30" fill="none" xmlns="http://www.w3.org/2000/svg">
<path fill-rule="evenodd" clip-rule="evenodd" d="M34.7441 20.1546C32.2334 25.8997 25.6461 30 17.915 30C8.02081 30 0 23.2843 0 15C0 6.71573 8.02081 0 17.915 0C25.5908 0 32.1392 4.0419 34.6897 9.72239C34.5443 9.71854 34.3981 9.7166 34.251 9.7166C33.7883 9.7166 33.3336 9.73586 32.8891 9.77304C31.1984 8.1735 28.7349 7.16599 25.9919 7.16599C20.8939 7.16599 16.7611 10.6462 16.7611 14.9393C16.7611 19.2323 20.8939 22.7125 25.9919 22.7125C28.7349 22.7125 31.1984 21.705 32.8891 20.1055C33.3336 20.1427 33.7883 20.1619 34.251 20.1619C34.4164 20.1619 34.5809 20.1595 34.7441 20.1546ZM5.82996 9.83806H15.5466V13.1174H12.5101V20.1619H8.8664V13.1174H5.82996V9.83806Z" fill="#008080"/>
<path d="M17.3684 11.2486H17.8543V18.7514H17.3684V11.2486Z" fill="#008080"/>
<path d="M18.583 9.12523H19.0688V20.8748H18.583V9.12523Z" fill="#008080"/>
<path d="M19.7976 7.85118H20.2834V22.1488H19.7976V7.85118Z" fill="#008080"/>
<path d="M21.0121 7.28494H21.498V22.7151H21.0121V7.28494Z" fill="#008080"/>
<path d="M22.2267 6.29401H22.7126V23.706H22.2267V6.29401Z" fill="#008080"/>
<path d="M23.4413 6.29401H23.9271V23.706H23.4413V6.29401Z" fill="#008080"/>
<path d="M24.6559 5.58621H25.1417V24.4138H24.6559V5.58621Z" fill="#008080"/>
<path d="M25.8704 5.16152H26.3563V24.8385H25.8704V5.16152Z" fill="#008080"/>
<path d="M27.085 4.73684H27.5709V25.2632H27.085V4.73684Z" fill="#008080"/>
<path d="M28.2996 5.82996H28.7854V12.1738C28.5841 12.5458 28.4204 12.9411 28.2996 13.3547V5.82996Z" fill="#008080"/>
<path d="M28.2996 16.7668V23.9271H28.7854V17.9476C28.5841 17.5757 28.4204 17.1804 28.2996 16.7668Z" fill="#008080"/>
<path d="M29.5142 19.0078V23.9271H30V19.5135C29.8286 19.3544 29.6663 19.1855 29.5142 19.0078Z" fill="#008080"/>
<path d="M30.7287 20.0928V21.9996H31.2146V20.3896C31.0477 20.2981 30.8856 20.199 30.7287 20.0928Z" fill="#008080"/>
<path d="M31.2146 9.73189C31.0477 9.82336 30.8856 9.92244 30.7287 10.0287V5.82996H31.2146V9.73189Z" fill="#008080"/>
<path d="M30 10.608C29.8286 10.7671 29.6663 10.9359 29.5142 11.1137V5.82996H30V10.608Z" fill="#008080"/>
</svg>
