<svg width="20" height="20" viewBox="0 0 20 20" fill="none" xmlns="http://www.w3.org/2000/svg">
<path d="M19.064 2.20188L19.032 2.18189L14.973 0.181885L10.592 6.02288L12.608 8.71089C12.5471 9.72212 12.1186 10.6762 11.4033 11.3936C10.6879 12.1109 9.73505 12.5421 8.72398 12.6059L8.71198 12.6069L6.02398 10.5909L0.182983 14.9719L2.18298 19.0309L2.20298 19.0629C2.41398 19.3989 2.78198 19.6189 3.20198 19.6189H4.25298C12.74 19.6189 19.62 12.7389 19.62 4.25188V3.20488V3.20089C19.62 2.78088 19.4 2.41288 19.069 2.20488L19.064 2.20188ZM18.12 4.25188C18.12 11.8979 11.899 18.1189 4.25298 18.1189H3.40498L2.07798 15.4249L6.02398 12.4659L8.22098 14.1139H8.47098C9.96712 14.112 11.4015 13.5169 12.4595 12.4591C13.5175 11.4013 14.1129 9.96702 14.115 8.47088V8.22088L12.467 6.02388L15.426 2.07788L18.12 3.40489V4.25188Z" fill="#646464"/>
</svg>
